<?xml version="1.0" encoding="UTF-8"?><svg id="a" xmlns="http://www.w3.org/2000/svg" viewBox="0 0 800 627"><defs><style>.b{fill:#fff;}</style></defs><path class="b" d="M347.98,395.48c15.35-.88,30.74-1.1,46.1-1.72,12.98,.24,25.96,.86,38.94,1.23,9.72,.19,19.36,1.55,29.02,2.44,11.32,1.21,22.69,2.12,33.88,4.23,15.05,2.76,30.26,4.74,45.06,8.71,11.98,3.24,24.18,5.68,36,9.51,15.44,5.14,31.16,9.54,46.11,16.04,8.86,3.75,17.87,7.18,26.67,11.08,12.59,6.45,25.46,12.4,37.78,19.37,9.89,6.12,19.92,12.03,29.64,18.41-14.26-4.94-27.76-11.87-42.07-16.69-12.69-4.29-25.12-9.33-38.03-12.94-13.38-3.76-26.5-8.44-40.12-11.26-13.27-3.01-26.36-6.79-39.78-9.03-11.59-1.94-23.11-4.28-34.71-6.11-9.49-1.19-18.97-2.42-28.44-3.66-13.29-1.97-26.72-2.46-40.08-3.69-16.28-1.61-32.66-1.37-48.99-1.98-11.65-.56-23.29,.3-34.93,.38-9,.46-18.04,.23-27.02,1.11-12.68,1.18-25.39,1.88-38.06,3.16-12,1.5-23.97,3.19-35.98,4.62-10.66,1.62-21.23,3.85-31.87,5.62-17.61,2.78-34.71,7.93-52.11,11.68-11.39,3.13-22.65,6.76-34.01,10.03-12.17,3.5-23.89,8.3-35.88,12.33-14.28,4.81-27.71,11.85-42.01,16.55,10.3-6.21,20.46-12.66,30.76-18.87,11.09-6.28,22.69-11.59,34.01-17.42,5.35-2.88,11.06-4.94,16.65-7.27,8.46-3.45,16.87-7.02,25.39-10.34,12.49-4.28,25.06-8.3,37.65-12.31,11.03-3.21,22.26-5.68,33.36-8.62,13.14-3.49,26.63-5.34,39.99-7.73,18.85-3.62,38.04-4.73,57.08-6.86m79.35-79.31c9.36-.04,18.71,0,28.06-.03-.03,9.35,0,18.7-.01,28.06-9.36-.05-18.72,.06-28.08-.06,.1-9.33,.04-18.65,.03-27.97Zm-46.53,0c9.35-.04,18.7-.02,28.05,0,0,9.34,0,18.68,0,28.03h-28.04c0-9.34,.02-18.68,0-28.02Zm-46.43,0c9.34-.05,18.68,0,28.02-.03,.05,9.35,.01,18.7,.02,28.06-9.31,.02-18.61-.09-27.92,.06-.24-9.36-.03-18.73-.12-28.09Zm-135.14-5.18c64.98-46.95,129.79-94.15,194.74-141.14,1.08-.61,1.53-1.53,1.36-2.78-.02-14.97,.03-29.95-.03-44.92-65.38,62.93-130.71,125.9-196.07,188.84Zm157.23-175.47c12.83-12.59,25.49-25.36,38.49-37.78,45.38,44.8,90.83,89.52,136.26,134.26,.1-40.42,0-80.84,.05-121.25,11.24,10.71,22.01,21.91,33.05,32.81,8.1,8.23,16.48,16.22,24.41,24.6,.27,38.27,.06,76.57,.1,114.85,.16,2.53-.79,5.74,1.68,7.46,39.2,38.47,78.22,77.12,117.42,115.6-10.26-6.17-19.75-13.54-29.71-20.17-94.44-65.46-188.89-130.91-283.34-196.37-103.24,71.49-206.42,143.06-309.65,214.56-1.01,.67-2.05,1.27-3.14,1.81,91.36-90.23,182.94-180.23,274.38-270.38Z"/><path class="b" d="M427.32,272.19c9.35-.02,18.69,.04,28.03-.03,.06,9.36,0,18.73,.03,28.1-9.32-.04-18.64-.13-27.95,.05-.21-9.37,0-18.75-.11-28.12m-46.51-.01c9.34,.02,18.68,.02,28.02,0,.03,9.36,.02,18.71,.01,28.07-9.35-.04-18.7-.03-28.04,0,.02-9.36-.01-18.71,0-28.06Zm-46.44,.01c9.35-.02,18.7,.03,28.05-.02,0,9.36,0,18.72,0,28.09-9.33-.06-18.66-.09-27.99,.01-.12-9.36,0-18.72-.06-28.08Z"/><path class="b" d="M297.96,472.91c3.8-1.43,7.1,2.65,10.82,2.77,3.16-1.12,6.1-3.44,9.62-3.11l.43,1.44c-2.9,3.36-6.64,6.63-10.8,8.24-3.9-2.05-7.37-4.98-10.46-8.1l.39-1.24Z"/><path class="b" d="M540.11,486.73c3.21-.85,6.6-.7,9.88-.38,4.54,3.24,7.68,8.06,11.55,12.04,4.91,5.15,9.18,10.93,14.54,15.63-.24-7.71,.97-15.64-.73-23.21-2.15-1-6.13-.66-5.92-3.89,2.91-2.29,6.62-.39,9.95-.88,2.45-.02,5.14-.88,7.45,.24,1.42,.35,.72,1.9,.69,2.89-2.19,.84-6.1,.79-6.16,3.91-.14,11.43-.26,22.88,.14,34.3-3.07,1.43-5.84-.92-7.8-3.05-7.2-8.02-14.41-16.04-21.55-24.11-.12,6.31-.26,12.64,.03,18.94,.02,3.74,4.91,3.53,6.55,5.89,.76,2.72-3.11,2.22-4.72,2.15-4.37-.61-8.9,.62-13.17-.35-.17-.48-.53-1.44-.7-1.92,2.62-1.95,7.21-2.65,6.92-6.84-.04-7.51,.62-15.11-.46-22.56-1.66-3.25-5.17-5.27-6.49-8.8m57.9,3.25c8.19-6.33,19.64-6.53,29.02-2.95,1.71,1.4,1.61,3.98,2.1,5.98,.07,1.86,.93,4.29-1.09,5.45-3.09-.92-3.55-4.71-5.99-6.47-6.05-4.51-15.86-3.73-20.4,2.57-6.67,8.33-4.37,22.23,4.74,27.85,4.54,2.8,10.32,2.2,15.04,.18-.09-2.9-.08-5.8-.09-8.69-2.4-1.69-6.34-1.8-7.13-5.12,3.34-1.87,7.24-.43,10.83-.73,2.99,.2,6.31-1.05,8.98,.81-.15,2.79-2.98,3.56-4.88,4.97-.09,3.82-.33,7.69,1.79,11.03-2.84,2.21-6.61,2.35-9.99,3.08-7.62,1.19-16.32,1.78-22.83-3.14-5.24-3.5-9.27-9.29-9.35-15.75-.37-7.39,3.15-14.83,9.25-19.07Zm-306.31-4.45c10.09,.85,20.24,.79,30.37,.46,1.16,.14,2.31,.34,3.45,.62-.19,1.09,.03,2.34-.64,3.31-7.33,10.98-15.68,21.31-22.66,32.52,5.44,.22,10.96,.54,16.38-.07,4.03-1.15,4.02-6.31,6.58-8.82,2.81-1.55,3.75,2.41,3.23,4.44-.76,3.28-1.07,7.24-4.01,9.41-10.48-.34-20.97-.37-31.44-.09-2.23,.53-3.68-2.14-2.21-3.79,6.92-9.68,13.81-19.38,20.67-29.11,.87-1.09,1.21-2.43,1.37-3.77-4.73-.19-9.51-.51-14.22,.11-2.81,1.19-4.27,4.24-6.59,6.12-3.15-3.01-.86-7.69-.28-11.34Z"/><path class="b" d="M367.36,486.81c2.69-1.22,5.89-.53,8.78-.55,2.15,.23,3.34,2.38,4.83,3.73,7.19,8.08,14.36,16.21,21.71,24.16,.14-7.74,.68-15.58-.3-23.27-1.89-.6-3.77-1.21-5.66-1.8-.12-.81-.24-1.62-.35-2.42,3.37-1.76,7.13-.14,10.69-.68,2.58-.44,5.15-.01,7.71,.29,2.73-.6,5.53-.57,8.31-.33,4.17,.38,8.57-1.11,12.51,.85-.38,3.74-5.17,2.53-6.72,5.22-.7,11.79,.45,23.66-.76,35.43-.4,5.52-4.16,10.82-9.62,12.28-3.39,.88-7.8,1-10.16-2.06-1.37-2.09,.45-4.32,1.55-6.06,2.75-.41,4.61,1.41,6.2,3.36,.77,1.36,3.11,1.13,3.48-.45,1.39-3.33,1.13-7.02,1.2-10.53-.08-10.32,.13-20.64-.1-30.95,.17-2.54-2.88-2.84-4.63-3.52-2.49-.92-4.89,.86-7.27,1.4-.88,3.27-.58,6.68-.61,10.03,.04,8.39-.1,16.77,.15,25.16,.45,1.86-2,2.04-3.17,1.58-2.22-.82-3.85-2.64-5.43-4.31-6.8-7.74-13.84-15.27-20.54-23.09-.25,6.56-.56,13.2,.1,19.73,.59,3.55,6.5,2.63,6.56,6.18-.44,.26-1.32,.77-1.76,1.03-5.65-.49-11.42,.54-16.98-.56-.36-4.15,6.15-2.97,6.55-6.89,.47-7.25,.16-14.55,.17-21.81,.48-4.93-5.73-6.72-6.44-11.15m-147.63,.1c3.46-2,7.49-.8,11.24-.9,3.46,0,7.17-.99,10.35,.84-.08,4.19-6.54,2.13-6.7,6.14-.22,8.31-.09,16.64-.06,24.97-.43,4.17,4.16,5.57,7.22,6.73,2.65-1.3,6.89-2,7.17-5.6,.41-5.36,.04-10.75,.18-16.11-.1-2.69,.27-5.52-.72-8.06-1.99-2.84-5.08-4.89-6.23-8.28,3.5-.43,7.56-1.27,10.82,.32,8.81,8.59,16.19,18.57,25.04,27.12,.21-5.69,.05-11.38,.13-17.07-.09-1.91,.2-3.95-.66-5.72-1.69-1.87-6.65-.93-5.88-4.46,2.68-2.06,6.12-.47,9.18-.74,3.03,0,6.48-1.24,9.11,.84,.38,4.15-6.47,1.95-6.51,5.93-.19,11.53-.22,23.08,.08,34.61-4.51,1.59-7.45-3.02-10.15-5.77-6.36-7.12-12.74-14.23-19.07-21.37-.19,5.2-.08,10.4-.12,15.6,.08,1.7-.15,3.55,.66,5.13,1.56,1.98,4.41,2.16,6.14,3.93,.15,3.19-3.92,2.11-5.94,2.16-4.41-.57-8.97,.89-13.23-.74-4.41,1.66-9.21,.25-13.81,.68-2.55-.13-5.39,.82-7.73-.42-1.9-2.52,2.21-3.04,3.67-4.07,2.33-.74,2.78-3.43,2.71-5.55-.04-7.99,.14-15.99-.09-23.97,.01-4.1-6.54-2.05-6.8-6.17Zm-47.65,3.77c.07,8.48-.1,16.97,.07,25.46-.04,2.7,1.68,5.37,4.29,6.24,4.16,1.32,9.42,1.07,12.54-2.34,4.39-4.85,5.49-11.98,4.21-18.23-2.15-8.81-12.58-14.55-21.11-11.13Zm-14.5-4.11c2.98-1.39,6.3-.65,9.47-.8,7.36-.13,15.08-1.56,22.12,1.33,6.22,2.27,11.85,7.34,13.2,14.02,1.33,8.28-1.3,17.71-8.32,22.77-9.16,6.57-20.8,2.27-31.11,3.31-1.87-.08-5.79,.87-5.66-2.04,1.84-2.41,6.71-2.26,6.78-6.17,.38-5.65,.05-11.32,.16-16.98-.15-3.74,.55-7.62-.83-11.19-2.01-.59-4.01-1.26-5.87-2.24,.02-.5,.05-1.51,.06-2.01Zm330.66,5.23c0,4.5-.35,9.07,.49,13.52,5.16,1.38,9.81-3.37,9.9-8.33,.28-4.08-3.76-7.45-7.67-7.28-1.2-.21-2.98,.65-2.72,2.09Zm-14.69-3.95c1.94-2.66,5.6-1.81,8.43-2.2,7.1-.17,15.06-1.43,21.25,2.92,3.72,2.49,4.39,7.69,2.71,11.58-1.07,2.79-3.62,4.58-5.68,6.6,3.67,5.78,7.8,11.41,13.23,15.67,1.25,1.15,2.95,1.44,4.53,1.92,2.53-1.19,6.35-1.94,6.48-5.41,.23-7.97,.03-15.95,.1-23.93,0-1.68,.07-4.06-2.03-4.5-1.72-.76-5.69-1.12-4.15-3.91,1.93-1.39,4.43-.72,6.64-.73,3.68,.5,7.35-.23,11.03-.09,1.32-.1,2.96,.62,3.05,2.13-1.16,2.94-6.66,1.42-6.59,5.23-.08,8.77-.28,17.57,.1,26.33,.19,4.02,6.26,3.01,6.82,6.59-.38,.29-1.14,.85-1.51,1.14-6.25,.22-12.58-.69-18.77,.41-4.06,1.74-9.1,1.48-12.74-1.12-5.02-4.36-8.59-10.03-12.32-15.45-1.19-1.86-3.65-1.48-5.52-1.87-.53,3.56-.64,7.21-.11,10.78,.78,3.11,4.76,2.92,6.58,5.11,.09,3.14-4.06,2.05-6.04,2.15-5.25-.85-10.86,1.24-15.83-.96,1.03-3.65,6.63-2.71,7.12-6.7,.46-6.17,.06-12.39,.2-18.57-.12-3.01,.36-6.09-.44-9.02-1.22-1.72-3.75-1.73-5.55-2.57-.25-.39-.74-1.15-.99-1.53Zm-36.64-1.96c8.67-.48,17.37,.17,26.04-.39,1.72-.13,3.46,0,5.19,.19,.41,2.91,1.73,6.07,.38,8.91-3.27,2.11-3.77-3.63-6.57-3.98-4.01-.57-8.09-.39-12.11-.06,.13,4.38-.2,8.77,.33,13.14,2.31,0,4.63,.12,6.95-.12,2.67-.04,3.74-3.72,6.51-3.3,1.06,3.65,.51,7.83-.03,11.58-2.17,2.05-3.33-2.26-4.98-3.25-2.85-.34-5.72-.13-8.58-.15,.26,4.48-1.65,10.17,1.78,13.78,3.97,.77,8.15,.54,12.15,.1,4.27-.76,3.51-8.44,8.58-6.98,.3,4.14-.74,9.52-4.39,11.88-9.02,.25-18.05-.73-27.06,0-2.32,.09-5.59,.73-6.37-2.24,2.14-1.35,4.79-2,6.54-3.89,1.31-3.19,.75-6.73,.86-10.08-.15-6.01,.27-12.05-.19-18.04,.15-4.13-7.36-1.89-6.31-6.07,.32-.25,.96-.77,1.28-1.02Zm-99.94-.18c8.15,.2,16.32-.22,24.44-.12,1.79,2.45,1.68,6.03,1.09,8.89-2.59,2.18-3.96-2.06-5.52-3.45-4.25-1.34-8.87-.61-13.26-.52,.04,4.31,.04,8.62,0,12.93,2.7,.31,5.48,.53,8.17-.04,2.12-.61,3.21-3.59,5.66-3.1,1.17,2.06,.17,4.46,.31,6.69-.23,1.76,.34,3.79-.68,5.37-2.72,.86-2.9-3.51-5.22-3.84-2.75-.22-5.5-.07-8.24,.02,.49,4.49-1.39,10.11,2.11,13.71,4.04,.73,8.35,.63,12.41-.03,3.61-.94,2.96-6.51,6.64-7.08,2.59,.14,1.71,3.39,1.29,5.05-1.03,2.45-1.41,5.87-4.12,7.05-9.7,.18-19.42-.72-29.11,.06-1.78,.36-4.97-.52-3.51-2.85,2.41-1.45,6.35-2.08,6.37-5.62,.18-8.61,.18-17.24,0-25.85,0-4.13-6.88-1.84-6.61-6.09,2.19-1.81,5.18-1,7.78-1.18Z"/></svg>